<svg width="128" height="128" viewBox="0 0 128 128" fill="none" xmlns="http://www.w3.org/2000/svg">
<g clip-path="url(#clip0_105_2)">
<path d="M127.985 37.0223C127.985 25.4402 120.81 16.0171 111.991 16.0171C105.248 16.0171 99.4786 21.5333 97.1297 29.3035C79.0315 12.0011 50.6651 11.5432 32.018 28.2524V22.7069C31.9155 18.9081 28.7531 15.9117 24.9544 16.0143C23.2031 16.0614 21.5358 16.775 20.2926 18.0093C17.7706 16.0091 14.1981 16.0283 11.6972 18.055C8.96985 15.4093 4.6139 15.4753 1.96822 18.203C0.767401 19.4408 0.0752593 21.0845 0.028883 22.8085L0.0345954 41.8244C-0.150783 44.3497 0.414426 46.8735 1.65919 49.0785C2.9066 51.241 4.73266 53.0126 6.93197 54.1939C7.31074 54.3958 7.64105 54.6777 7.89998 55.02C8.15891 55.3624 8.34026 55.7569 8.43146 56.1764C8.76473 57.5928 8.88021 59.0517 8.77392 60.5029C6.92397 82.7353 6.22221 98.2635 6.84828 103.107C6.9916 105.439 7.94963 107.647 9.55508 109.345C13.127 112.814 18.8097 112.814 22.3822 109.346C24.0391 107.648 25.0072 105.395 25.0989 103.024C25.2792 99.3474 25.2657 95.6638 25.0581 91.9888C40.5017 113.507 70.4653 118.432 91.984 102.989C96.5719 99.6959 100.542 95.6188 103.712 90.9451C103.481 98.2321 103.382 102.971 103.379 103.092C103.226 107.849 106.957 111.829 111.714 111.982C116.47 112.136 120.45 108.404 120.603 103.648C120.609 103.463 120.609 103.278 120.603 103.092V103.048C120.599 102.833 120.168 81.255 118.883 58.5853C118.842 57.8739 118.969 57.1629 119.253 56.5095C119.537 55.856 119.971 55.2784 120.519 54.8231C122.978 52.5736 124.919 49.8168 126.209 46.7433C127.498 43.6698 128.104 40.3531 127.985 37.0223ZM20.5488 102.603C20.5434 103.862 20.0811 105.076 19.2478 106.02C17.4341 107.826 14.5017 107.825 12.6886 106.019C11.8904 105.022 11.4318 103.796 11.3799 102.52C10.8021 98.0507 11.5304 82.4846 13.3278 60.8813C13.4683 58.9904 13.3255 57.0891 12.9039 55.2404C12.6778 54.1742 12.2228 53.1699 11.5704 52.2969C10.9179 51.4239 10.0837 50.703 9.12522 50.1841C7.66784 49.4166 6.45778 48.2518 5.63527 46.8247C4.81547 45.3514 4.45454 43.6667 4.59876 41.9869V22.8083C4.64754 22.2358 4.9094 21.7026 5.33252 21.314C5.75564 20.9254 6.30921 20.7098 6.8837 20.7098C7.45819 20.7098 8.01176 20.9254 8.43488 21.314C8.858 21.7026 9.11986 22.2358 9.16864 22.8083V36.8849C9.16864 37.4909 9.40937 38.0721 9.83788 38.5006C10.2664 38.9291 10.8476 39.1698 11.4536 39.1698C12.0596 39.1698 12.6408 38.9291 13.0693 38.5006C13.4978 38.0721 13.7385 37.4909 13.7385 36.8849V23.1633C13.7984 22.5991 14.065 22.077 14.4869 21.6975C14.9087 21.3181 15.4561 21.1082 16.0235 21.1082C16.5908 21.1082 17.1382 21.3181 17.56 21.6975C17.9819 22.077 18.2485 22.5991 18.3084 23.1633V36.8852C18.3084 37.4912 18.5491 38.0724 18.9776 38.5009C19.4061 38.9294 19.9873 39.1701 20.5933 39.1701C21.1993 39.1701 21.7805 38.9294 22.209 38.5009C22.6375 38.0724 22.8783 37.4912 22.8783 36.8852V22.7069C22.9271 22.1344 23.1889 21.6012 23.612 21.2126C24.0352 20.824 24.5887 20.6084 25.1632 20.6084C25.7377 20.6084 26.2913 20.824 26.7144 21.2126C27.1375 21.6012 27.3994 22.1344 27.4482 22.7069L27.4513 33.8956C27.4519 33.9082 27.4504 33.9202 27.4513 33.9328L27.4536 42.0486C27.575 43.6755 27.2125 45.302 26.4116 46.7233C25.5894 48.1506 24.3793 49.3154 22.9217 50.0827C21.9637 50.6012 21.1297 51.3215 20.4774 52.1939C19.8251 53.0663 19.3701 54.07 19.1438 55.1356C18.7936 57.0108 18.654 58.9194 18.7277 60.8256C20.3246 84.9415 20.9192 98.6062 20.5488 102.603ZM64.0072 107.415C47.0949 107.389 31.7293 97.5663 24.6068 82.227C24.2915 76.2724 23.8551 69.0863 23.289 60.5243C23.2422 59.0327 23.3521 57.5402 23.6169 56.0715C23.7081 55.6528 23.8892 55.2589 24.1477 54.9171C24.4062 54.5754 24.736 54.2939 25.1141 54.0922C27.3141 52.9115 29.1407 51.1398 30.388 48.9768C31.6133 46.8234 32.18 44.3578 32.018 41.8855V34.7034C48.1331 17.0379 75.5178 15.7815 93.183 31.8966C94.1966 32.8212 95.1657 33.7935 96.0869 34.8102C96.0272 35.546 95.997 36.284 95.9963 37.0223C95.8776 40.354 96.4842 43.6716 97.7741 46.7458C99.064 49.8199 101.006 52.5771 103.467 54.8265C104.014 55.2816 104.448 55.8587 104.732 56.5114C105.016 57.1642 105.143 57.8745 105.103 58.5853C104.666 66.3909 104.329 74.0223 104.071 80.7229C97.3587 96.9163 81.5367 107.457 64.0072 107.415ZM117.613 51.2966C116.512 52.2094 115.64 53.3679 115.068 54.679C114.496 55.9901 114.239 57.4172 114.319 58.8455C115.58 81.0856 116.016 102.275 116.033 103.113C116.173 105.345 114.476 107.267 112.245 107.407C110.013 107.547 108.09 105.85 107.95 103.619C107.94 103.459 107.94 103.299 107.949 103.14C107.952 102.925 108.397 81.5186 109.666 58.8386C109.744 57.4119 109.487 55.9867 108.915 54.6773C108.343 53.3679 107.472 52.2108 106.372 51.2989C104.446 49.4684 102.931 47.2484 101.93 44.7867C100.929 42.3249 100.464 39.6781 100.566 37.0226C100.566 27.9599 105.692 20.5873 111.991 20.5873C118.29 20.5873 123.416 27.9597 123.416 37.0226C123.518 39.6775 123.053 42.3237 122.053 44.7849C121.052 47.2462 119.539 49.466 117.613 51.2966Z" fill="#797D79"/>
<path d="M64.0072 86.8503C51.3878 86.8503 41.1578 76.6203 41.1578 64.0009C41.1578 51.3814 51.3878 41.1515 64.0072 41.1515C76.6267 41.1515 86.8566 51.3814 86.8566 64.0009C86.8426 76.6146 76.6209 86.8363 64.0072 86.8503ZM64.0072 45.7214C53.9118 45.7214 45.7277 53.9054 45.7277 64.0009C45.7277 74.0963 53.9118 82.2804 64.0072 82.2804C74.1027 82.2804 82.2867 74.0963 82.2867 64.0009C82.2753 53.9103 74.0981 45.7331 64.0072 45.7214Z" fill="#797D79"/>
</g>
<defs>
<clipPath id="clip0_105_2">
<rect width="128" height="128" fill="white"/>
</clipPath>
</defs>
</svg>
