<svg width="128" height="128" viewBox="0 0 128 128" fill="none" xmlns="http://www.w3.org/2000/svg">
<path d="M64 0C51.342 0 38.9683 3.75353 28.4435 10.7859C17.9188 17.8184 9.71574 27.8138 4.87174 39.5082C0.0277304 51.2027 -1.23968 64.071 1.22977 76.4858C3.69922 88.9005 9.79463 100.304 18.7452 109.255C27.6957 118.205 39.0995 124.301 51.5142 126.77C63.929 129.24 76.7973 127.972 88.4917 123.128C100.186 118.284 110.182 110.081 117.214 99.5565C124.246 89.0317 128 76.658 128 64C127.981 47.032 121.232 30.7645 109.234 18.7663C97.2355 6.76811 80.968 0.0191283 64 0ZM64 124.167C52.1 124.167 40.4673 120.639 30.5728 114.027C20.6783 107.416 12.9665 98.0192 8.41253 87.0251C3.8586 76.0309 2.66709 63.9332 4.98866 52.2619C7.31024 40.5906 13.0406 29.8697 21.4552 21.4552C29.8698 13.0406 40.5906 7.31021 52.2619 4.98863C63.9333 2.66706 76.0309 3.85857 87.0251 8.41251C98.0193 12.9664 107.416 20.6783 114.027 30.5727C120.639 40.4672 124.167 52.1 124.167 64C124.149 79.9519 117.805 95.2453 106.525 106.525C95.2453 117.805 79.9519 124.149 64 124.167Z" fill="#797D79"/>
<path d="M64.0001 17.4238C54.7881 17.4238 45.7831 20.1554 38.1237 25.2733C30.4643 30.3911 24.4945 37.6653 20.9693 46.176C17.444 54.6867 16.5216 64.0516 18.3188 73.0865C20.116 82.1214 24.5519 90.4205 31.0657 96.9343C37.5795 103.448 45.8786 107.884 54.9135 109.681C63.9484 111.478 73.3133 110.556 81.824 107.031C90.3347 103.506 97.6089 97.5357 102.727 89.8763C107.845 82.2169 110.576 73.2119 110.576 64C110.562 51.6515 105.651 39.8127 96.919 31.081C88.1873 22.3493 76.3486 17.4377 64.0001 17.4238ZM64.0001 106.744C55.5462 106.744 47.2821 104.237 40.2529 99.54C33.2238 94.8433 27.7452 88.1676 24.51 80.3573C21.2749 72.5469 20.4284 63.9526 22.0777 55.6611C23.727 47.3696 27.7979 39.7534 33.7757 33.7756C39.7535 27.7978 47.3697 23.7269 55.6612 22.0776C63.9526 20.4283 72.547 21.2748 80.3573 24.51C88.1677 27.7451 94.8434 33.2237 99.5401 40.2529C104.237 47.282 106.744 55.5461 106.744 64C106.731 75.3324 102.224 86.197 94.2103 94.2102C86.1971 102.223 75.3325 106.731 64.0001 106.744Z" fill="#797D79"/>
<path d="M94.4248 62.0837C94.1731 62.0836 93.9239 62.1331 93.6913 62.2293C93.4588 62.3256 93.2475 62.4667 93.0695 62.6447C92.8915 62.8226 92.7504 63.034 92.6541 63.2665C92.5579 63.4991 92.5084 63.7483 92.5086 64C92.4999 71.5583 89.4935 78.8045 84.149 84.149C78.8045 89.4935 71.5583 92.4999 64 92.5086C63.4918 92.5086 63.0044 92.7105 62.645 93.0698C62.2856 93.4292 62.0837 93.9166 62.0837 94.4248C62.0837 94.9331 62.2856 95.4205 62.645 95.7798C63.0044 96.1392 63.4918 96.3411 64 96.3411C72.5745 96.3315 80.795 92.9211 86.858 86.858C92.9211 80.795 96.3315 72.5745 96.3411 64C96.3412 63.7483 96.2918 63.4991 96.1955 63.2665C96.0993 63.034 95.9581 62.8226 95.7802 62.6447C95.6022 62.4667 95.3909 62.3256 95.1583 62.2293C94.9258 62.1331 94.6765 62.0836 94.4248 62.0837Z" fill="#797D79"/>
</svg>
