<svg width="128" height="128" viewBox="0 0 128 128" fill="none" xmlns="http://www.w3.org/2000/svg">
<path d="M126 34.7874C124.892 34.7874 124 33.8943 124 32.7842V18.011C124 16.3501 122.658 15.0063 121 15.0063H7C5.34167 15.0063 4 16.3501 4 18.011V32.7842C4 33.8943 3.10833 34.7874 2 34.7874C0.891667 34.7874 0 33.8943 0 32.7842V18.011C0 14.1466 3.14167 11 7 11H121C124.858 11 128 14.1466 128 18.011V32.7842C128 33.8943 127.108 34.7874 126 34.7874Z" fill="#797D79"/>
<path d="M121 117H7C3.14167 117 0 113.853 0 109.989V32.7842C0 31.6741 0.891667 30.7811 2 30.7811H126C127.108 30.7811 128 31.6741 128 32.7842V109.989C128 113.853 124.858 117 121 117ZM4 34.7874V109.989C4 111.65 5.34167 112.994 7 112.994H121C122.658 112.994 124 111.65 124 109.989V34.7874H4ZM17.5833 25.8149C15.975 25.8149 14.6667 24.5045 14.6667 22.8937C14.6667 21.2828 15.975 19.9724 17.5833 19.9724C19.1917 19.9724 20.5 21.2828 20.5 22.8937C20.5 24.5045 19.1917 25.8149 17.5833 25.8149ZM29.0833 25.8149C27.475 25.8149 26.1667 24.5045 26.1667 22.8937C26.1667 21.2828 27.475 19.9724 29.0833 19.9724C30.6917 19.9724 32 21.2828 32 22.8937C32 24.5045 30.6917 25.8149 29.0833 25.8149ZM40.5833 25.8149C38.975 25.8149 37.6667 24.5045 37.6667 22.8937C37.6667 21.2828 38.975 19.9724 40.5833 19.9724C42.1917 19.9724 43.5 21.2828 43.5 22.8937C43.5 24.5045 42.1917 25.8149 40.5833 25.8149Z" fill="#797D79"/>
<path d="M37.1333 93.5214C36.025 93.5214 35.1333 92.6284 35.1333 91.5183V83.5474H19.0083C18.2583 83.5474 17.575 83.1301 17.225 82.4624C16.8833 81.7947 16.9416 80.9934 17.3833 80.3758L35.5083 55.0944C36.0166 54.3849 36.9166 54.0928 37.7416 54.3599C38.5666 54.6269 39.125 55.3948 39.125 56.2629V79.5411H43.4416C44.55 79.5411 45.4416 80.4342 45.4416 81.5443C45.4416 82.6544 44.55 83.5474 43.4416 83.5474H39.125V91.5183C39.1333 92.6284 38.2416 93.5214 37.1333 93.5214ZM22.9083 79.5411H35.1333V62.4893L22.9083 79.5411ZM102.675 93.5214C101.567 93.5214 100.675 92.6284 100.675 91.5183V83.5474H84.55C83.8 83.5474 83.1166 83.1301 82.7666 82.4624C82.425 81.7947 82.4833 80.9934 82.925 80.3758L101.05 55.0944C101.558 54.3849 102.458 54.0928 103.283 54.3599C104.108 54.6269 104.667 55.3948 104.667 56.2629V79.5411H108.983C110.092 79.5411 110.983 80.4342 110.983 81.5443C110.983 82.6544 110.092 83.5474 108.983 83.5474H104.667V91.5183C104.675 92.6284 103.775 93.5214 102.675 93.5214ZM88.45 79.5411H100.675V62.4893L88.45 79.5411ZM64 93.5214C57.375 93.5214 51.9916 88.1296 51.9916 81.4942V66.287C51.9916 59.6515 57.375 54.2597 64 54.2597C70.625 54.2597 76.0083 59.6515 76.0083 66.287V81.4942C76.0083 88.1296 70.625 93.5214 64 93.5214ZM64 58.266C59.5833 58.266 55.9916 61.8633 55.9916 66.287V81.4942C55.9916 85.9178 59.5833 89.5151 64 89.5151C68.4166 89.5151 72.0083 85.9178 72.0083 81.4942V66.287C72.0083 61.8633 68.4166 58.266 64 58.266Z" fill="#797D79"/>
</svg>
