<svg width="48" height="48" viewBox="0 0 48 48" fill="none" xmlns="http://www.w3.org/2000/svg">
<path fill-rule="evenodd" clip-rule="evenodd" d="M23.9999 9.68453e-05C28.47 0.0511057 32.5083 1.14973 36.1148 3.29598C39.6782 5.39933 42.6424 8.38169 44.724 11.9579C46.8571 15.586 47.9491 19.6488 48 24.1461C47.8733 30.2994 45.9325 35.5549 42.1775 39.9126C38.4226 44.2705 33.6134 46.9664 28.635 47.9999V30.748H33.3417L34.4061 23.9683H27.279V19.5278C27.2395 18.6073 27.5306 17.703 28.0998 16.9784C28.6697 16.2518 29.6734 15.8699 31.1109 15.8327H35.4146V9.89395C35.3528 9.87406 34.7669 9.79548 33.6568 9.65821C32.3977 9.51088 31.1316 9.43219 29.864 9.42247C26.9951 9.43571 24.7261 10.245 23.0571 11.8504C21.3881 13.4552 20.5355 15.7771 20.4994 18.816V23.9683H15.0756V30.748H20.4994V48C14.3865 46.9666 9.57734 44.2706 5.82237 39.9128C2.06741 35.5551 0.126683 30.2994 0 24.1461C0.050686 19.6486 1.14266 15.5858 3.27593 11.9579C5.35753 8.38166 8.32178 5.39926 11.8852 3.29588C15.4916 1.15009 19.5298 0.0515577 23.9999 9.68453e-05Z" fill="white"/>
</svg>
