<svg width="48" height="48" viewBox="0 0 48 48" fill="none" xmlns="http://www.w3.org/2000/svg">
<path d="M24 29.04C26.7835 29.04 29.04 26.7835 29.04 24C29.04 21.2164 26.7835 18.96 24 18.96C21.2165 18.96 18.96 21.2164 18.96 24C18.96 26.7835 21.2165 29.04 24 29.04Z" fill="white"/>
<path d="M24 0C10.7452 0 0 10.7452 0 24C0 37.2548 10.7452 48 24 48C37.2548 48 48 37.2548 48 24C48 10.7452 37.2548 0 24 0ZM38.828 30.0998C38.7128 32.3816 38.0716 34.6316 36.4088 36.2768C34.7298 37.9376 32.4691 38.5564 30.1654 38.6704H17.8347C15.5307 38.5564 13.2703 37.938 11.5913 36.2768C9.92842 34.6316 9.28733 32.3816 9.17213 30.0998V17.9002C9.28733 15.6184 9.92851 13.3684 11.5913 11.7231C13.2703 10.0623 15.531 9.44352 17.8347 9.32957H30.1653C32.4693 9.44352 34.7297 10.062 36.4087 11.7231C38.0716 13.3684 38.7127 15.6184 38.8279 17.9002L38.828 30.0998Z" fill="white"/>
<path d="M30.0096 12.1093C27.0061 12.0269 20.9946 12.0269 17.9912 12.1093C16.4282 12.1522 14.6563 12.5413 13.5427 13.7307C12.3855 14.9671 11.9483 16.4608 11.9039 18.1319C11.826 21.0649 11.9039 29.8681 11.9039 29.8681C11.9547 31.539 12.3855 33.0329 13.5427 34.2693C14.6563 35.4591 16.4282 35.8479 17.9912 35.8908C20.9946 35.9731 27.0061 35.9731 30.0096 35.8908C31.5726 35.8479 33.3445 35.4588 34.4581 34.2693C35.6152 33.0329 36.0525 31.5392 36.0969 29.8681V18.1319C36.0525 16.4608 35.6152 14.9671 34.4581 13.7307C33.3441 12.5409 31.5722 12.1522 30.0096 12.1093ZM24 31.812C22.4549 31.812 20.9446 31.3538 19.6599 30.4955C18.3752 29.6371 17.3739 28.417 16.7827 26.9895C16.1914 25.5621 16.0367 23.9913 16.3381 22.476C16.6395 20.9606 17.3836 19.5686 18.4761 18.4761C19.5686 17.3836 20.9606 16.6395 22.476 16.3381C23.9913 16.0367 25.5621 16.1914 26.9895 16.7827C28.417 17.3739 29.6371 18.3752 30.4954 19.6599C31.3538 20.9446 31.812 22.4549 31.812 24C31.812 26.0719 30.989 28.0589 29.5239 29.5239C28.0589 30.989 26.0719 31.812 24 31.812ZM31.8452 17.8005C31.5362 17.8004 31.2342 17.7088 30.9773 17.537C30.7204 17.3653 30.5202 17.1213 30.402 16.8358C30.2838 16.5503 30.2529 16.2361 30.3133 15.9331C30.3736 15.63 30.5224 15.3517 30.741 15.1332C30.9595 14.9147 31.2379 14.766 31.5409 14.7057C31.844 14.6455 32.1581 14.6764 32.4436 14.7947C32.7291 14.913 32.9731 15.1132 33.1447 15.3701C33.3164 15.6271 33.408 15.9291 33.408 16.2381C33.408 16.4433 33.3676 16.6465 33.289 16.8361C33.2105 17.0257 33.0954 17.198 32.9503 17.343C32.8051 17.4881 32.6328 17.6032 32.4432 17.6817C32.2536 17.7602 32.0504 17.8006 31.8452 17.8005Z" fill="white"/>
</svg>
