<svg width="20" height="20" viewBox="0 0 20 20" fill="none" xmlns="http://www.w3.org/2000/svg">
<path d="M9.5 20C9.25208 20 9.00417 19.9569 8.75625 19.8706C8.50833 19.7844 8.28698 19.655 8.09219 19.4825C6.94115 18.4476 5.92292 17.4386 5.0375 16.4554C4.15208 15.4722 3.41276 14.5192 2.81953 13.5964C2.2263 12.6736 1.77474 11.7853 1.46484 10.9314C1.15495 10.0776 1 9.26261 1 8.48642C1 5.89909 1.85443 3.83786 3.56328 2.30272C5.27214 0.767572 7.25104 0 9.5 0C11.749 0 13.7279 0.767572 15.4367 2.30272C17.1456 3.83786 18 5.89909 18 8.48642C18 9.26261 17.8451 10.0776 17.5352 10.9314C17.2253 11.7853 16.7737 12.6736 16.1805 13.5964C15.5872 14.5192 14.8479 15.4722 13.9625 16.4554C13.0771 17.4386 12.0589 18.4476 10.9078 19.4825C10.713 19.655 10.4917 19.7844 10.2438 19.8706C9.99583 19.9569 9.74792 20 9.5 20ZM9.5 10.3493C10.0844 10.3493 10.5846 10.1466 11.0008 9.74127C11.4169 9.33592 11.625 8.84864 11.625 8.27943C11.625 7.71022 11.4169 7.22294 11.0008 6.81759C10.5846 6.41225 10.0844 6.20957 9.5 6.20957C8.91563 6.20957 8.41536 6.41225 7.99922 6.81759C7.58307 7.22294 7.375 7.71022 7.375 8.27943C7.375 8.84864 7.58307 9.33592 7.99922 9.74127C8.41536 10.1466 8.91563 10.3493 9.5 10.3493Z" fill="white"/>
</svg>
