<svg width="20" height="24" viewBox="0 0 20 24" fill="none" xmlns="http://www.w3.org/2000/svg">
<path d="M10 24C9.70833 24 9.41667 23.9483 9.125 23.8448C8.83333 23.7413 8.57292 23.586 8.34375 23.379C6.98958 22.1371 5.79167 20.9263 4.75 19.7464C3.70833 18.5666 2.83854 17.423 2.14062 16.3157C1.44271 15.2083 0.911458 14.1423 0.546875 13.1177C0.182292 12.0931 0 11.1151 0 10.1837C0 7.07891 1.00521 4.60543 3.01562 2.76326C5.02604 0.921087 7.35417 0 10 0C12.6458 0 14.974 0.921087 16.9844 2.76326C18.9948 4.60543 20 7.07891 20 10.1837C20 11.1151 19.8177 12.0931 19.4531 13.1177C19.0885 14.1423 18.5573 15.2083 17.8594 16.3157C17.1615 17.423 16.2917 18.5666 15.25 19.7464C14.2083 20.9263 13.0104 22.1371 11.6562 23.379C11.4271 23.586 11.1667 23.7413 10.875 23.8448C10.5833 23.9483 10.2917 24 10 24ZM10 12.4191C10.6875 12.4191 11.276 12.1759 11.7656 11.6895C12.2552 11.2031 12.5 10.6184 12.5 9.93532C12.5 9.25226 12.2552 8.66753 11.7656 8.18111C11.276 7.6947 10.6875 7.45149 10 7.45149C9.3125 7.45149 8.72396 7.6947 8.23438 8.18111C7.74479 8.66753 7.5 9.25226 7.5 9.93532C7.5 10.6184 7.74479 11.2031 8.23438 11.6895C8.72396 12.1759 9.3125 12.4191 10 12.4191Z" fill="#060A06"/>
</svg>
