<svg width="107" height="32" viewBox="0 0 107 32" fill="none" xmlns="http://www.w3.org/2000/svg">
<path d="M47.6094 9.22656H49.9453C49.8984 9.99219 49.6875 10.6719 49.3125 11.2656C48.9427 11.8594 48.4245 12.3229 47.7578 12.6562C47.0964 12.9896 46.2995 13.1562 45.3672 13.1562C44.638 13.1562 43.9844 13.0312 43.4062 12.7812C42.8281 12.526 42.3333 12.1615 41.9219 11.6875C41.5156 11.2135 41.2057 10.6406 40.9922 9.96875C40.7786 9.29688 40.6719 8.54427 40.6719 7.71094V6.92188C40.6719 6.08854 40.7812 5.33594 41 4.66406C41.224 3.98698 41.5417 3.41146 41.9531 2.9375C42.3698 2.46354 42.8672 2.09896 43.4453 1.84375C44.0234 1.58854 44.6693 1.46094 45.3828 1.46094C46.3307 1.46094 47.1302 1.63281 47.7812 1.97656C48.4375 2.32031 48.9453 2.79427 49.3047 3.39844C49.6693 4.0026 49.888 4.6901 49.9609 5.46094H47.6172C47.5911 5.0026 47.5 4.61458 47.3438 4.29688C47.1875 3.97396 46.9505 3.73177 46.6328 3.57031C46.3203 3.40365 45.9036 3.32031 45.3828 3.32031C44.9922 3.32031 44.651 3.39323 44.3594 3.53906C44.0677 3.6849 43.8229 3.90625 43.625 4.20312C43.4271 4.5 43.2786 4.875 43.1797 5.32812C43.0859 5.77604 43.0391 6.30208 43.0391 6.90625V7.71094C43.0391 8.29948 43.0833 8.81771 43.1719 9.26562C43.2604 9.70833 43.3958 10.0833 43.5781 10.3906C43.7656 10.6927 44.0052 10.9219 44.2969 11.0781C44.5938 11.2292 44.9505 11.3047 45.3672 11.3047C45.8568 11.3047 46.2604 11.2266 46.5781 11.0703C46.8958 10.9141 47.138 10.6823 47.3047 10.375C47.4766 10.0677 47.5781 9.6849 47.6094 9.22656ZM56.4844 10.4141L58.7031 4.54688H60.5391L57.2422 13H55.7266L52.4453 4.54688H54.2812L56.4844 10.4141ZM53.7422 4.54688V13H51.4922V4.54688H53.7422ZM59.2812 13V4.54688H61.5312V13H59.2812ZM68.0625 11.0938V7.32812C68.0625 7.05729 68.0182 6.82552 67.9297 6.63281C67.8411 6.4349 67.7031 6.28125 67.5156 6.17188C67.3333 6.0625 67.0964 6.00781 66.8047 6.00781C66.5547 6.00781 66.3385 6.05208 66.1562 6.14062C65.974 6.22396 65.8333 6.34635 65.7344 6.50781C65.6354 6.66406 65.5859 6.84896 65.5859 7.0625H63.3359C63.3359 6.70312 63.4193 6.36198 63.5859 6.03906C63.7526 5.71615 63.9948 5.43229 64.3125 5.1875C64.6302 4.9375 65.0078 4.74219 65.4453 4.60156C65.888 4.46094 66.3828 4.39062 66.9297 4.39062C67.5859 4.39062 68.1693 4.5 68.6797 4.71875C69.1901 4.9375 69.5911 5.26562 69.8828 5.70312C70.1797 6.14062 70.3281 6.6875 70.3281 7.34375V10.9609C70.3281 11.4245 70.3568 11.8047 70.4141 12.1016C70.4714 12.3932 70.5547 12.6484 70.6641 12.8672V13H68.3906C68.2812 12.7708 68.1979 12.4844 68.1406 12.1406C68.0885 11.7917 68.0625 11.4427 68.0625 11.0938ZM68.3594 7.85156L68.375 9.125H67.1172C66.8203 9.125 66.5625 9.15885 66.3438 9.22656C66.125 9.29427 65.9453 9.39062 65.8047 9.51562C65.6641 9.63542 65.5599 9.77604 65.4922 9.9375C65.4297 10.099 65.3984 10.276 65.3984 10.4688C65.3984 10.6615 65.4427 10.8359 65.5312 10.9922C65.6198 11.1432 65.7474 11.263 65.9141 11.3516C66.0807 11.4349 66.276 11.4766 66.5 11.4766C66.8385 11.4766 67.1328 11.4089 67.3828 11.2734C67.6328 11.138 67.8255 10.9714 67.9609 10.7734C68.1016 10.5755 68.1745 10.388 68.1797 10.2109L68.7734 11.1641C68.6901 11.3776 68.5755 11.599 68.4297 11.8281C68.2891 12.0573 68.1094 12.2734 67.8906 12.4766C67.6719 12.6745 67.4089 12.8385 67.1016 12.9688C66.7943 13.0938 66.4297 13.1562 66.0078 13.1562C65.4714 13.1562 64.9844 13.0495 64.5469 12.8359C64.1146 12.6172 63.7708 12.3177 63.5156 11.9375C63.2656 11.5521 63.1406 11.1146 63.1406 10.625C63.1406 10.1823 63.224 9.78906 63.3906 9.44531C63.5573 9.10156 63.8021 8.8125 64.125 8.57812C64.4531 8.33854 64.862 8.15885 65.3516 8.03906C65.8411 7.91406 66.4089 7.85156 67.0547 7.85156H68.3594ZM74.4609 4.54688V13H72.2109V4.54688H74.4609ZM79.9531 4.54688L76.3125 9.83594H74.0625L73.7891 7.75781H75.2812L77.1016 4.54688H79.9531ZM77.2031 13L75.125 9.42969L77.0859 8.34375L80.2188 13H77.2031ZM87.4219 4.54688V13H85.1641V4.54688H87.4219ZM85.0234 2.34375C85.0234 2.01562 85.138 1.74479 85.3672 1.53125C85.5964 1.31771 85.9036 1.21094 86.2891 1.21094C86.6693 1.21094 86.974 1.31771 87.2031 1.53125C87.4375 1.74479 87.5547 2.01562 87.5547 2.34375C87.5547 2.67188 87.4375 2.94271 87.2031 3.15625C86.974 3.36979 86.6693 3.47656 86.2891 3.47656C85.9036 3.47656 85.5964 3.36979 85.3672 3.15625C85.138 2.94271 85.0234 2.67188 85.0234 2.34375ZM45.2656 23.5469H43.5V22.3047H44.9062C45.3177 22.3047 45.651 22.2422 45.9062 22.1172C46.1615 21.987 46.349 21.8047 46.4688 21.5703C46.5885 21.3359 46.6484 21.0599 46.6484 20.7422C46.6484 20.4818 46.5807 20.2422 46.4453 20.0234C46.3151 19.8047 46.112 19.6302 45.8359 19.5C45.5599 19.3646 45.2083 19.2969 44.7812 19.2969C44.4583 19.2969 44.1641 19.3542 43.8984 19.4688C43.6328 19.5833 43.4219 19.7448 43.2656 19.9531C43.1094 20.1562 43.0312 20.4036 43.0312 20.6953H40.6953C40.6953 20.1953 40.8021 19.7474 41.0156 19.3516C41.2344 18.9505 41.5312 18.612 41.9062 18.3359C42.2865 18.0547 42.724 17.8411 43.2188 17.6953C43.7135 17.5495 44.2344 17.4766 44.7812 17.4766C45.4219 17.4766 46 17.5469 46.5156 17.6875C47.0312 17.8229 47.474 18.026 47.8438 18.2969C48.2135 18.5677 48.4974 18.9036 48.6953 19.3047C48.8932 19.7057 48.9922 20.1719 48.9922 20.7031C48.9922 21.0938 48.9036 21.4609 48.7266 21.8047C48.5495 22.1484 48.2969 22.4505 47.9688 22.7109C47.6406 22.9714 47.2474 23.1771 46.7891 23.3281C46.3307 23.474 45.8229 23.5469 45.2656 23.5469ZM43.5 22.8672H45.2656C45.8854 22.8672 46.4349 22.9323 46.9141 23.0625C47.3984 23.1927 47.8073 23.3828 48.1406 23.6328C48.4792 23.8828 48.7344 24.1927 48.9062 24.5625C49.0833 24.9271 49.1719 25.3464 49.1719 25.8203C49.1719 26.3516 49.0625 26.8229 48.8438 27.2344C48.6302 27.6458 48.3255 27.9948 47.9297 28.2812C47.5391 28.5677 47.0755 28.7839 46.5391 28.9297C46.0078 29.0755 45.4219 29.1484 44.7812 29.1484C44.2708 29.1484 43.763 29.0859 43.2578 28.9609C42.7526 28.8307 42.2943 28.6328 41.8828 28.3672C41.4714 28.1016 41.1432 27.7604 40.8984 27.3438C40.6536 26.9271 40.5312 26.4271 40.5312 25.8438H42.8828C42.8828 26.1198 42.9635 26.3724 43.125 26.6016C43.2865 26.8255 43.5104 27.0052 43.7969 27.1406C44.0833 27.2708 44.4115 27.3359 44.7812 27.3359C45.2135 27.3359 45.5807 27.2682 45.8828 27.1328C46.1901 26.9974 46.4219 26.8125 46.5781 26.5781C46.7396 26.3385 46.8203 26.0755 46.8203 25.7891C46.8203 25.4818 46.7786 25.2214 46.6953 25.0078C46.612 24.7943 46.4896 24.6198 46.3281 24.4844C46.1667 24.3438 45.9661 24.2422 45.7266 24.1797C45.4922 24.1172 45.2188 24.0859 44.9062 24.0859H43.5V22.8672ZM55.3281 27.0938V23.3281C55.3281 23.0573 55.2839 22.8255 55.1953 22.6328C55.1068 22.4349 54.9688 22.2812 54.7812 22.1719C54.599 22.0625 54.362 22.0078 54.0703 22.0078C53.8203 22.0078 53.6042 22.0521 53.4219 22.1406C53.2396 22.224 53.099 22.3464 53 22.5078C52.901 22.6641 52.8516 22.849 52.8516 23.0625H50.6016C50.6016 22.7031 50.6849 22.362 50.8516 22.0391C51.0182 21.7161 51.2604 21.4323 51.5781 21.1875C51.8958 20.9375 52.2734 20.7422 52.7109 20.6016C53.1536 20.4609 53.6484 20.3906 54.1953 20.3906C54.8516 20.3906 55.4349 20.5 55.9453 20.7188C56.4557 20.9375 56.8568 21.2656 57.1484 21.7031C57.4453 22.1406 57.5938 22.6875 57.5938 23.3438V26.9609C57.5938 27.4245 57.6224 27.8047 57.6797 28.1016C57.737 28.3932 57.8203 28.6484 57.9297 28.8672V29H55.6562C55.5469 28.7708 55.4635 28.4844 55.4062 28.1406C55.3542 27.7917 55.3281 27.4427 55.3281 27.0938ZM55.625 23.8516L55.6406 25.125H54.3828C54.0859 25.125 53.8281 25.1589 53.6094 25.2266C53.3906 25.2943 53.2109 25.3906 53.0703 25.5156C52.9297 25.6354 52.8255 25.776 52.7578 25.9375C52.6953 26.099 52.6641 26.276 52.6641 26.4688C52.6641 26.6615 52.7083 26.8359 52.7969 26.9922C52.8854 27.1432 53.013 27.263 53.1797 27.3516C53.3464 27.4349 53.5417 27.4766 53.7656 27.4766C54.1042 27.4766 54.3984 27.4089 54.6484 27.2734C54.8984 27.138 55.0911 26.9714 55.2266 26.7734C55.3672 26.5755 55.4401 26.388 55.4453 26.2109L56.0391 27.1641C55.9557 27.3776 55.8411 27.599 55.6953 27.8281C55.5547 28.0573 55.375 28.2734 55.1562 28.4766C54.9375 28.6745 54.6745 28.8385 54.3672 28.9688C54.0599 29.0938 53.6953 29.1562 53.2734 29.1562C52.737 29.1562 52.25 29.0495 51.8125 28.8359C51.3802 28.6172 51.0365 28.3177 50.7812 27.9375C50.5312 27.5521 50.4062 27.1146 50.4062 26.625C50.4062 26.1823 50.4896 25.7891 50.6562 25.4453C50.8229 25.1016 51.0677 24.8125 51.3906 24.5781C51.7188 24.3385 52.1276 24.1589 52.6172 24.0391C53.1068 23.9141 53.6745 23.8516 54.3203 23.8516H55.625ZM63.5078 20.5469V29H61.25V20.5469H63.5078ZM66.2266 20.5469V22.2891H58.5703V20.5469H66.2266ZM69.6172 25.8594L72.4531 20.5469H74.7031V29H72.4531V23.6797L69.6172 29H67.3672V20.5469H69.6172V25.8594ZM76.4297 20.5469H78.6797V27.2422H81.0156V20.5469H83.2812V27.2422H85.6094V20.5469H87.8594V29H76.4297V20.5469ZM89.3125 24.8594V24.6953C89.3125 24.0755 89.401 23.5052 89.5781 22.9844C89.7552 22.4583 90.013 22.0026 90.3516 21.6172C90.6901 21.2318 91.1068 20.9323 91.6016 20.7188C92.0964 20.5 92.6641 20.3906 93.3047 20.3906C93.9453 20.3906 94.5156 20.5 95.0156 20.7188C95.5156 20.9323 95.9349 21.2318 96.2734 21.6172C96.6172 22.0026 96.8776 22.4583 97.0547 22.9844C97.2318 23.5052 97.3203 24.0755 97.3203 24.6953V24.8594C97.3203 25.474 97.2318 26.0443 97.0547 26.5703C96.8776 27.0911 96.6172 27.5469 96.2734 27.9375C95.9349 28.3229 95.5182 28.6224 95.0234 28.8359C94.5286 29.0495 93.9609 29.1562 93.3203 29.1562C92.6797 29.1562 92.1094 29.0495 91.6094 28.8359C91.1146 28.6224 90.6953 28.3229 90.3516 27.9375C90.013 27.5469 89.7552 27.0911 89.5781 26.5703C89.401 26.0443 89.3125 25.474 89.3125 24.8594ZM91.5625 24.6953V24.8594C91.5625 25.2135 91.5938 25.5443 91.6562 25.8516C91.7188 26.1589 91.8177 26.4297 91.9531 26.6641C92.0938 26.8932 92.276 27.0729 92.5 27.2031C92.724 27.3333 92.9974 27.3984 93.3203 27.3984C93.6328 27.3984 93.901 27.3333 94.125 27.2031C94.349 27.0729 94.5286 26.8932 94.6641 26.6641C94.7995 26.4297 94.8984 26.1589 94.9609 25.8516C95.0286 25.5443 95.0625 25.2135 95.0625 24.8594V24.6953C95.0625 24.3516 95.0286 24.0286 94.9609 23.7266C94.8984 23.4193 94.7969 23.1484 94.6562 22.9141C94.5208 22.6745 94.3411 22.487 94.1172 22.3516C93.8932 22.2161 93.6224 22.1484 93.3047 22.1484C92.987 22.1484 92.7161 22.2161 92.4922 22.3516C92.2734 22.487 92.0938 22.6745 91.9531 22.9141C91.8177 23.1484 91.7188 23.4193 91.6562 23.7266C91.5938 24.0286 91.5625 24.3516 91.5625 24.6953ZM101.102 20.5469V29H98.8516V20.5469H101.102ZM106.594 20.5469L102.953 25.8359H100.703L100.43 23.7578H101.922L103.742 20.5469H106.594ZM103.844 29L101.766 25.4297L103.727 24.3438L106.859 29H103.844Z" fill="#386641"/>
<g clip-path="url(#clip0_12_227)">
<path d="M16.9294 6.90119C17.8055 6.92805 18.7073 7.22425 19.7542 7.8287C20.4492 8.23 21.3734 8.84702 21.9704 9.81109L22.9682 9.43727C23.8874 9.09292 24.2773 8.00566 23.7866 7.15567C23.4485 6.57011 22.8046 6.29927 22.1886 6.3858C22.1958 5.83422 21.9172 5.28869 21.3948 4.98709C20.8724 4.6855 20.2606 4.71695 19.7866 4.999C19.5535 4.4222 18.997 4 18.3209 4C17.3393 4 16.5928 4.88134 16.7541 5.8495L16.9294 6.90119ZM0 16.75V19.7969C0 22.531 2.04614 24.796 4.6875 25.1417V27.2969C4.6875 27.6852 5.00231 28 5.39062 28H18.6094C18.9977 28 19.3125 27.6852 19.3125 27.2969V25.1417C21.9539 24.796 24 22.531 24 19.7969V16.75H0ZM23.764 11.8463C23.6573 11.7514 23.5242 11.6913 23.3824 11.6739C23.2406 11.6565 23.0969 11.6827 22.9704 11.749L22.5607 11.9637C22.5438 12.8676 22.2372 13.8405 21.6415 14.8723C21.5492 15.0317 21.4531 15.1889 21.3532 15.3438H22.9125L23.9535 12.6231C24.0046 12.4897 24.0138 12.3439 23.9799 12.2051C23.9461 12.0664 23.8708 11.9412 23.764 11.8463ZM4.30364 11.3748C5.35566 10.4283 6.70641 10.1024 7.67813 9.9977C7.7537 9.98958 7.82965 9.98549 7.90566 9.98547C8.50247 9.98547 9.07402 10.2407 9.47363 10.6857C9.67123 10.9061 9.82031 11.1655 9.91119 11.4472C10.0021 11.7289 10.0327 12.0265 10.0012 12.3208C9.90788 13.1873 9.63858 14.355 8.91033 15.3438H10.6949C10.6949 15.238 10.7068 15.1315 10.7311 15.0265C11.18 13.0882 11.9385 11.0533 12.7106 9.71598C13.1355 8.98005 13.6065 8.38755 14.1208 7.93881C13.5832 7.24661 12.8022 6.77575 11.9328 6.62781C11.7651 5.98263 11.4158 5.3957 10.9182 4.93497C10.2669 4.33206 9.4192 4 8.53125 4C7.6433 4 6.79561 4.33206 6.14433 4.93502C5.6468 5.39561 5.29753 5.98248 5.12972 6.62748C3.47062 6.9085 2.20312 8.35591 2.20312 10.0938C2.20312 10.1448 2.20458 10.196 2.20688 10.2475C2.91473 10.4539 3.66431 10.7996 4.30364 11.3748Z" fill="#386641"/>
<path d="M1.14108 14.8735C1.32507 15.0574 1.5278 15.2126 1.74019 15.3438H6.867C7.0794 15.2127 7.28213 15.0574 7.46611 14.8735C8.26088 14.0787 8.52075 12.9341 8.60307 12.1702C8.65111 11.7241 8.27494 11.3478 7.82874 11.3959C7.06486 11.4782 5.92027 11.7381 5.1255 12.5328C4.73836 12.9199 4.47825 13.3901 4.30365 13.8588C4.12904 13.3901 3.86893 12.9199 3.48179 12.5328C2.68702 11.738 1.54243 11.4782 0.778552 11.3959C0.332396 11.3478 -0.043823 11.724 0.0042239 12.1702C0.0864426 12.9341 0.346318 14.0787 1.14108 14.8735ZM13.5984 11.0405L15.2007 11.9656C15.537 12.1598 15.6522 12.5898 15.458 12.9261C15.3278 13.1516 15.0915 13.2777 14.8485 13.2777C14.7292 13.2777 14.6083 13.2474 14.4976 13.1834L13.0317 12.3371C12.6675 13.2696 12.3389 14.3169 12.1011 15.3438H19.6428C19.9487 14.93 20.214 14.5323 20.4236 14.1692C20.4626 14.1014 20.5007 14.0332 20.5377 13.9644L18.9171 13.0286C18.5807 12.8345 18.4655 12.4045 18.6597 12.0682C18.8539 11.7318 19.2839 11.6166 19.6202 11.8108L21.0636 12.6442C21.4747 10.9112 20.47 9.86575 19.051 9.04652C17.2574 8.011 15.4817 7.72872 13.9284 10.4191C13.8186 10.6094 13.7082 10.8177 13.5984 11.0405Z" fill="#386641"/>
</g>
<defs>
<clipPath id="clip0_12_227">
<rect width="24" height="24" fill="white" transform="translate(0 4)"/>
</clipPath>
</defs>
</svg>
