<svg width="48" height="48" viewBox="0 0 48 48" fill="none" xmlns="http://www.w3.org/2000/svg">
<path d="M16 30C15.7167 30 15.4792 29.9042 15.2875 29.7125C15.0958 29.5208 15 29.2833 15 29C15 28.7167 15.0958 28.4792 15.2875 28.2875C15.4792 28.0958 15.7167 28 16 28H32C32.2833 28 32.5208 28.0958 32.7125 28.2875C32.9042 28.4792 33 28.7167 33 29C33 29.2833 32.9042 29.5208 32.7125 29.7125C32.5208 29.9042 32.2833 30 32 30H16ZM16 25C15.7167 25 15.4792 24.9042 15.2875 24.7125C15.0958 24.5208 15 24.2833 15 24C15 23.7167 15.0958 23.4792 15.2875 23.2875C15.4792 23.0958 15.7167 23 16 23H32C32.2833 23 32.5208 23.0958 32.7125 23.2875C32.9042 23.4792 33 23.7167 33 24C33 24.2833 32.9042 24.5208 32.7125 24.7125C32.5208 24.9042 32.2833 25 32 25H16ZM16 20C15.7167 20 15.4792 19.9042 15.2875 19.7125C15.0958 19.5208 15 19.2833 15 19C15 18.7167 15.0958 18.4792 15.2875 18.2875C15.4792 18.0958 15.7167 18 16 18H32C32.2833 18 32.5208 18.0958 32.7125 18.2875C32.9042 18.4792 33 18.7167 33 19C33 19.2833 32.9042 19.5208 32.7125 19.7125C32.5208 19.9042 32.2833 20 32 20H16Z" fill="#060A06"/>
</svg>
