<svg width="20" height="20" viewBox="0 0 20 20" fill="none" xmlns="http://www.w3.org/2000/svg">
<path d="M18.8333 20C19.1667 20 19.4444 19.8889 19.6667 19.6667C19.8889 19.4444 20 19.1667 20 18.8333V14.3333C20 14.0926 19.9167 13.875 19.75 13.6806C19.5833 13.4861 19.3704 13.3519 19.1111 13.2778L15.2778 12.5C15.0185 12.463 14.7546 12.4861 14.4861 12.5694C14.2176 12.6528 14 12.7778 13.8333 12.9444L11.2222 15.5556C10.5185 15.1481 9.85185 14.6991 9.22222 14.2083C8.59259 13.7176 7.99074 13.1852 7.41667 12.6111C6.80556 12.0185 6.24537 11.4028 5.73611 10.7639C5.22685 10.125 4.78704 9.46296 4.41667 8.77778L7.11111 6.05556C7.25926 5.90741 7.36111 5.73148 7.41667 5.52778C7.47222 5.32407 7.48148 5.07407 7.44444 4.77778L6.72222 0.888889C6.68519 0.648148 6.56481 0.439815 6.36111 0.263889C6.15741 0.087963 5.92593 0 5.66667 0H1.16667C0.833334 0 0.555555 0.111111 0.333334 0.333333C0.111111 0.555556 0 0.833333 0 1.16667C0 3.48148 0.504629 5.76852 1.51389 8.02778C2.52315 10.287 3.9537 12.3426 5.80556 14.1944C7.65741 16.0463 9.71296 17.4769 11.9722 18.4861C14.2315 19.4954 16.5185 20 18.8333 20Z" fill="white"/>
</svg>
